<svg xmlns="http://www.w3.org/2000/svg" viewBox="0 0 480.5 269.18"><defs><style>.cls-1{fill:#fff;}</style></defs><title>Element 1</title><g id="Ebene_2" data-name="Ebene 2"><g id="Ebene_1-2" data-name="Ebene 1"><path d="M480.5,183.67,0,269.18V85.51L480.5,0Z"/><path class="cls-1" d="M275.69,200.26l-28.79,5.12V61.43l28.79-5.13Z"/><path class="cls-1" d="M54,239.72l-28.79,5.12v-144L54,95.76Z"/><path class="cls-1" d="M128.59,226.44,99.8,231.56V87.6l28.79-5.12Z"/><path class="cls-1" d="M25.69,175.13,128.6,156.81v31.13L25.69,206.25Z"/><path class="cls-1" d="M164.84,220l-28.79,5.12v-144L164.84,76Z"/><path class="cls-1" d="M239.45,206.71l-28.79,5.12v-144l28.79-5.12Z"/><path class="cls-1" d="M136.28,155.44l102.91-18.31v31.13L136.28,186.57Z"/><path class="cls-1" d="M338.5,189.08l-28.79,5.13v-144l28.79-5.12Z"/><path class="cls-1" d="M283.14,55,365.5,40.32V71.45L283.14,86.11Z"/><path class="cls-1" d="M428.5,173.07l-28.78,5.12v-144l28.78-5.12Z"/><path class="cls-1" d="M373,39l82.36-14.65V55.47L373,70.12Z"/></g></g></svg>